<svg xmlns="http://www.w3.org/2000/svg" xmlns:xlink="http://www.w3.org/1999/xlink" contentStyleType="text/css" data-diagram-type="CLASS" height="479px" preserveAspectRatio="none" style="width:704px;height:479px;background:#FFFFFF;" version="1.1" viewBox="0 0 704 479" width="704px" zoomAndPan="magnify"><defs/><g><!--class Tablero--><g class="entity" data-entity="Tablero" data-source-line="3" data-uid="ent0002" id="entity_Tablero"><rect fill="#F1F1F1" height="227.2656" rx="3.5" ry="3.5" style="stroke:#181818;stroke-width:0.5;" width="284.6377" x="85.47" y="7"/><ellipse cx="197.1179" cy="23" fill="#ADD1B2" rx="11" ry="11" style="stroke:#181818;stroke-width:1;"/><path d="M200.0867,28.6406 Q199.5086,28.9375 198.8679,29.0781 Q198.2273,29.2344 197.5242,29.2344 Q195.0242,29.2344 193.6961,27.5938 Q192.3836,25.9375 192.3836,22.8125 Q192.3836,19.6875 193.6961,18.0313 Q195.0242,16.375 197.5242,16.375 Q198.2273,16.375 198.8679,16.5313 Q199.5242,16.6875 200.0867,16.9844 L200.0867,19.7031 Q199.4617,19.125 198.8679,18.8594 Q198.2742,18.5781 197.6492,18.5781 Q196.3054,18.5781 195.6179,19.6563 Q194.9304,20.7188 194.9304,22.8125 Q194.9304,24.9063 195.6179,25.9844 Q196.3054,27.0469 197.6492,27.0469 Q198.2742,27.0469 198.8679,26.7813 Q199.4617,26.5 200.0867,25.9219 L200.0867,28.6406 Z " fill="#000000"/><text fill="#000000" font-family="sans-serif" font-size="14" lengthAdjust="spacing" textLength="52.8418" x="217.6179" y="27.8467">Tablero</text><line style="stroke:#181818;stroke-width:0.5;" x1="86.47" x2="369.1077" y1="39" y2="39"/><rect fill="none" height="6" style="stroke:#C82930;stroke-width:1;" width="6" x="93.47" y="49.6484"/><text fill="#000000" font-family="sans-serif" font-size="14" lengthAdjust="spacing" textLength="108.2334" x="105.47" y="55.9951">DIMENSION: int</text><rect fill="none" height="6" style="stroke:#C82930;stroke-width:1;" width="6" x="93.47" y="65.9453"/><text fill="#000000" font-family="sans-serif" font-size="14" lengthAdjust="spacing" textLength="140.7998" x="105.47" y="72.292">estadoActual: int[][]</text><rect fill="none" height="6" style="stroke:#C82930;stroke-width:1;" width="6" x="93.47" y="82.2422"/><text fill="#000000" font-family="sans-serif" font-size="14" lengthAdjust="spacing" textLength="162.709" x="105.47" y="88.5889">estadoSiguiente: int[][]</text><line style="stroke:#181818;stroke-width:0.5;" x1="86.47" x2="369.1077" y1="95.8906" y2="95.8906"/><ellipse cx="96.47" cy="109.5391" fill="#84BE84" rx="3" ry="3" style="stroke:#038048;stroke-width:1;"/><text fill="#000000" font-family="sans-serif" font-size="14" lengthAdjust="spacing" textLength="63.7656" x="105.47" y="112.8857">Tablero()</text><ellipse cx="96.47" cy="125.8359" fill="#84BE84" rx="3" ry="3" style="stroke:#038048;stroke-width:1;"/><text fill="#000000" font-family="sans-serif" font-size="14" lengthAdjust="spacing" textLength="129.5615" x="105.47" y="129.1826">leerEstadoActual()</text><ellipse cx="96.47" cy="142.1328" fill="#84BE84" rx="3" ry="3" style="stroke:#038048;stroke-width:1;"/><text fill="#000000" font-family="sans-serif" font-size="14" lengthAdjust="spacing" textLength="258.6377" x="105.47" y="145.4795">generarEstadoActualPorMontecarlo()</text><ellipse cx="96.47" cy="158.4297" fill="#84BE84" rx="3" ry="3" style="stroke:#038048;stroke-width:1;"/><text fill="#000000" font-family="sans-serif" font-size="14" lengthAdjust="spacing" textLength="197.7705" x="105.47" y="161.7764">transitarAlEstadoSiguiente()</text><rect fill="#F24D5C" height="6" style="stroke:#C82930;stroke-width:1;" width="6" x="93.47" y="171.7266"/><text fill="#000000" font-family="sans-serif" font-size="14" lengthAdjust="spacing" textLength="179.5596" x="105.47" y="178.0732">calcularEstadoSiguiente()</text><rect fill="#F24D5C" height="6" style="stroke:#C82930;stroke-width:1;" width="6" x="93.47" y="188.0234"/><text fill="#000000" font-family="sans-serif" font-size="14" lengthAdjust="spacing" textLength="220.8281" x="105.47" y="194.3701">contarVecinosVivos(int, int): int</text><rect fill="#F24D5C" height="6" style="stroke:#C82930;stroke-width:1;" width="6" x="93.47" y="204.3203"/><text fill="#000000" font-family="sans-serif" font-size="14" lengthAdjust="spacing" textLength="186.5391" x="105.47" y="210.667">copiarMatriz(int[][], int[][])</text><ellipse cx="96.47" cy="223.6172" fill="#84BE84" rx="3" ry="3" style="stroke:#038048;stroke-width:1;"/><text fill="#000000" font-family="sans-serif" font-size="14" lengthAdjust="spacing" textLength="117.708" x="105.47" y="226.9639">toString(): String</text></g><!--class Matematicas--><g class="entity" data-entity="Matematicas" data-source-line="17" data-uid="ent0003" id="entity_Matematicas"><rect fill="#F1F1F1" height="64.2969" rx="3.5" ry="3.5" style="stroke:#181818;stroke-width:0.5;" width="292.417" x="405.58" y="88.48"/><ellipse cx="502.5751" cy="104.48" fill="#ADD1B2" rx="11" ry="11" style="stroke:#181818;stroke-width:1;"/><path d="M505.5439,110.1206 Q504.9657,110.4175 504.3251,110.5581 Q503.6845,110.7144 502.9814,110.7144 Q500.4814,110.7144 499.1532,109.0737 Q497.8407,107.4175 497.8407,104.2925 Q497.8407,101.1675 499.1532,99.5112 Q500.4814,97.855 502.9814,97.855 Q503.6845,97.855 504.3251,98.0112 Q504.9814,98.1675 505.5439,98.4644 L505.5439,101.1831 Q504.9189,100.605 504.3251,100.3394 Q503.7314,100.0581 503.1064,100.0581 Q501.7626,100.0581 501.0751,101.1362 Q500.3876,102.1987 500.3876,104.2925 Q500.3876,106.3862 501.0751,107.4644 Q501.7626,108.5269 503.1064,108.5269 Q503.7314,108.5269 504.3251,108.2612 Q504.9189,107.98 505.5439,107.4019 L505.5439,110.1206 Z " fill="#000000"/><text fill="#000000" font-family="sans-serif" font-size="14" lengthAdjust="spacing" textLength="89.9268" x="523.0751" y="109.3267">Matematicas</text><line style="stroke:#181818;stroke-width:0.5;" x1="406.58" x2="696.997" y1="120.48" y2="120.48"/><line style="stroke:#181818;stroke-width:0.5;" x1="406.58" x2="696.997" y1="128.48" y2="128.48"/><ellipse cx="416.58" cy="142.1284" fill="#84BE84" rx="3" ry="3" style="stroke:#038048;stroke-width:1;"/><text fill="#000000" font-family="sans-serif" font-size="14" lengthAdjust="spacing" textLength="266.417" x="425.58" y="145.4751">generarNumeroPi(long pasos): double</text></g><!--class Graph--><g class="entity" data-entity="Graph" data-source-line="21" data-uid="ent0004" id="entity_Graph"><rect fill="#F1F1F1" height="178.375" rx="3.5" ry="3.5" style="stroke:#181818;stroke-width:0.5;" width="441.5703" x="7" y="294.26"/><ellipse cx="195.959" cy="310.26" fill="#ADD1B2" rx="11" ry="11" style="stroke:#181818;stroke-width:1;"/><path d="M198.9277,315.9006 Q198.3496,316.1975 197.709,316.3381 Q197.0684,316.4944 196.3652,316.4944 Q193.8652,316.4944 192.5371,314.8538 Q191.2246,313.1975 191.2246,310.0725 Q191.2246,306.9475 192.5371,305.2913 Q193.8652,303.635 196.3652,303.635 Q197.0684,303.635 197.709,303.7913 Q198.3652,303.9475 198.9277,304.2444 L198.9277,306.9631 Q198.3027,306.385 197.709,306.1194 Q197.1152,305.8381 196.4902,305.8381 Q195.1465,305.8381 194.459,306.9163 Q193.7715,307.9788 193.7715,310.0725 Q193.7715,312.1663 194.459,313.2444 Q195.1465,314.3069 196.4902,314.3069 Q197.1152,314.3069 197.709,314.0413 Q198.3027,313.76 198.9277,313.1819 L198.9277,315.9006 Z " fill="#000000"/><text fill="#000000" font-family="sans-serif" font-size="14" lengthAdjust="spacing" textLength="42.9434" x="216.459" y="315.1067">Graph</text><rect fill="#FFFFFF" height="15.9688" style="stroke:#181818;stroke-width:1;stroke-dasharray:2.0,2.0;" width="10.209" x="441.3613" y="291.26"/><text fill="#000000" font-family="sans-serif" font-size="12" font-style="italic" lengthAdjust="spacing" textLength="8.209" x="442.3613" y="303.3987">V</text><line style="stroke:#181818;stroke-width:0.5;" x1="8" x2="447.5703" y1="326.26" y2="326.26"/><rect fill="none" height="6" style="stroke:#C82930;stroke-width:1;" width="6" x="15" y="336.9084"/><text fill="#000000" font-family="sans-serif" font-size="14" lengthAdjust="spacing" textLength="232.251" x="27" y="343.2551">adjacencyList: Map&lt;V, Set&lt;V&gt;&gt;</text><line style="stroke:#181818;stroke-width:0.5;" x1="8" x2="447.5703" y1="350.5569" y2="350.5569"/><ellipse cx="18" cy="364.2053" fill="#84BE84" rx="3" ry="3" style="stroke:#038048;stroke-width:1;"/><text fill="#000000" font-family="sans-serif" font-size="14" lengthAdjust="spacing" textLength="171.0625" x="27" y="367.552">addVertex(V v): boolean</text><ellipse cx="18" cy="380.5022" fill="#84BE84" rx="3" ry="3" style="stroke:#038048;stroke-width:1;"/><text fill="#000000" font-family="sans-serif" font-size="14" lengthAdjust="spacing" textLength="208.9883" x="27" y="383.8489">addEdge(V v1, V v2): boolean</text><ellipse cx="18" cy="396.7991" fill="#84BE84" rx="3" ry="3" style="stroke:#038048;stroke-width:1;"/><text fill="#000000" font-family="sans-serif" font-size="14" lengthAdjust="spacing" textLength="211.6133" x="27" y="400.1457">obtainAdjacents(V v): Set&lt;V&gt;</text><ellipse cx="18" cy="413.0959" fill="#84BE84" rx="3" ry="3" style="stroke:#038048;stroke-width:1;"/><text fill="#000000" font-family="sans-serif" font-size="14" lengthAdjust="spacing" textLength="203.9707" x="27" y="416.4426">containsVertex(V v): boolean</text><ellipse cx="18" cy="429.3928" fill="#84BE84" rx="3" ry="3" style="stroke:#038048;stroke-width:1;"/><text fill="#000000" font-family="sans-serif" font-size="14" lengthAdjust="spacing" textLength="117.708" x="27" y="432.7395">toString(): String</text><ellipse cx="18" cy="445.6897" fill="#84BE84" rx="3" ry="3" style="stroke:#038048;stroke-width:1;"/><text fill="#000000" font-family="sans-serif" font-size="14" lengthAdjust="spacing" textLength="206.377" x="27" y="449.0364">onePath(V v1, V v2): List&lt;V&gt;</text><rect fill="#F24D5C" height="6" style="stroke:#C82930;stroke-width:1;" width="6" x="15" y="458.9866"/><text fill="#000000" font-family="sans-serif" font-size="14" lengthAdjust="spacing" textLength="415.5703" x="27" y="465.3332">reconstructPath(Map&lt;V, V&gt; trace, V start, V end): List&lt;V&gt;</text></g><!--SRC=[VL7BQiCm4BpxAzIRGvr3UmmX4AWfWIODkFWIUbZBYwEYI4PQXpx8ltSToqvCGtqmacPsPdVsZlPuG75KXGD3KIGrU2_UeD3ehFY917zJyRHQfvjizRgP2SMixX4zGMcNaXhGv_VT- -vzX6MgQXGQmZ5yt-l7at3NY2wzaXk02Wqw665RwzQMDIKuVL4WRjyh0hVKwTWxKAP2WfQDxiLkuAmABaUfZFMvEbeVSzT9s_haUcvfQmLk3UJKTnpcIle1XtvinhYfOYxjJj6fJvTByG2a9FYGy33efZbmBbiLQsigKOEtdWLAst1U5u5d1_L-dY-6_K3v0HAD_7fHdcPiKC_pH6H8J5e41oZB71tXPvoB8uiMrce4Sq7Jii8MUqW4_n__K6n1eCooio8VP3gJG3b7g8p_n-X6C47Uu1PeF-wWdQUNdmg7RE39DPBEr30d1y7hbzXMyMuTjGSqvLNzwHS0]--></g></svg>